<svg xmlns="http://www.w3.org/2000/svg" viewBox="0 0 1180 610" width="1180" height="610">
  <defs>
    <radialGradient id="glowPurple" cx="20%" cy="30%" r="50%">
      <stop offset="0%" stop-color="#7C3AED" stop-opacity="0.15" />
      <stop offset="100%" stop-color="#030712" stop-opacity="0" />
    </radialGradient>
    <radialGradient id="glowCyan" cx="80%" cy="70%" r="50%">
      <stop offset="0%" stop-color="#22D3EE" stop-opacity="0.12" />
      <stop offset="100%" stop-color="#030712" stop-opacity="0" />
    </radialGradient>

    <linearGradient id="asciiGrad" x1="0%" y1="0%" x2="100%" y2="100%">
      <stop offset="0%" stop-color="#7C3AED">
        <animate attributeName="stop-color" values="#7C3AED;#22D3EE;#10B981;#7C3AED" dur="10s" repeatCount="indefinite" />
      </stop>
      <stop offset="50%" stop-color="#22D3EE">
        <animate attributeName="stop-color" values="#22D3EE;#10B981;#7C3AED;#22D3EE" dur="10s" repeatCount="indefinite" />
      </stop>
      <stop offset="100%" stop-color="#10B981">
        <animate attributeName="stop-color" values="#10B981;#7C3AED;#22D3EE;#10B981" dur="10s" repeatCount="indefinite" />
      </stop>
    </linearGradient>

    <clipPath id="type-1">
      <rect x="0" y="-20" width="0" height="40">
        <animate attributeName="width" values="0;280;280;0;0" keyTimes="0;0.05;0.15;0.20;1" dur="20s" repeatCount="indefinite" />
      </rect>
    </clipPath>
    <clipPath id="type-2">
      <rect x="0" y="-20" width="0" height="40">
        <animate attributeName="width" values="0;0;280;280;0;0" keyTimes="0;0.20;0.25;0.35;0.40;1" dur="20s" repeatCount="indefinite" />
      </rect>
    </clipPath>
    <clipPath id="type-3">
      <rect x="0" y="-20" width="0" height="40">
        <animate attributeName="width" values="0;0;280;280;0;0" keyTimes="0;0.40;0.45;0.55;0.60;1" dur="20s" repeatCount="indefinite" />
      </rect>
    </clipPath>
    <clipPath id="type-4">
      <rect x="0" y="-20" width="0" height="40">
        <animate attributeName="width" values="0;0;280;280;0;0" keyTimes="0;0.60;0.65;0.75;0.80;1" dur="20s" repeatCount="indefinite" />
      </rect>
    </clipPath>
    <clipPath id="type-5">
      <rect x="0" y="-20" width="0" height="40">
        <animate attributeName="width" values="0;0;280;280;0" keyTimes="0;0.80;0.85;0.95;1" dur="20s" repeatCount="indefinite" />
      </rect>
    </clipPath>
  </defs>

  <style>
    /* Typography & Core Styles Only - Stripped of hover effects for GitHub compatibility */
    .text-main { font-family: -apple-system, BlinkMacSystemFont, "Segoe UI", Roboto, Helvetica, Arial, sans-serif; fill: #F8FAFC; }
    .text-muted { font-family: -apple-system, BlinkMacSystemFont, "Segoe UI", Roboto, Helvetica, Arial, sans-serif; fill: #94A3B8; }
    .mono { font-family: "JetBrains Mono", "Fira Code", Consolas, Monaco, monospace; }
  </style>

  <rect width="1180" height="610" fill="#030712" rx="30" />
  <rect width="1180" height="610" fill="url(#glowPurple)" rx="30" />
  <rect width="1180" height="610" fill="url(#glowCyan)" rx="30" />
  
  <g fill="#22D3EE" fill-opacity="0.4">
    <circle cx="200" cy="150" r="1.5"><animate attributeName="cy" values="150;120;150" dur="4s" repeatCount="indefinite"/></circle>
    <circle cx="800" cy="450" r="2"><animate attributeName="cy" values="450;410;450" dur="6s" repeatCount="indefinite"/></circle>
    <circle cx="500" cy="80" r="1"><animate attributeName="cy" values="80;50;80" dur="5s" repeatCount="indefinite"/></circle>
  </g>

  <g transform="translate(40, 40)">
    <rect width="420" height="530" fill="#0F172A" stroke="#FFFFFF" stroke-opacity="0.08" stroke-width="1.5" rx="24" />
    
    <g>
      <animateTransform attributeName="transform" type="translate" values="0,0; 0,-8; 0,0" dur="6s" repeatCount="indefinite" />
      
      <text font-family="monospace" font-size="12" font-weight="bold" fill="url(#asciiGrad)" x="45" y="100" style="letter-spacing: 2px;">
        <tspan x="45" dy="1.2em" opacity="0"><animate attributeName="opacity" from="0" to="1" dur="0.2s" begin="0.1s" fill="freeze" />           .---------------------------.</tspan>
        <tspan x="45" dy="1.2em" opacity="0"><animate attributeName="opacity" from="0" to="1" dur="0.2s" begin="0.3s" fill="freeze" />          /  [SYSTEM_CORE_INITIALIZED]  \</tspan>
        <tspan x="45" dy="1.2em" opacity="0"><animate attributeName="opacity" from="0" to="1" dur="0.2s" begin="0.5s" fill="freeze" />         /  =============================  \</tspan>
        <tspan x="45" dy="1.2em" opacity="0"><animate attributeName="opacity" from="0" to="1" dur="0.2s" begin="0.7s" fill="freeze" />        /   █████████████████████████████   \</tspan>
        <tspan x="45" dy="1.2em" opacity="0"><animate attributeName="opacity" from="0" to="1" dur="0.2s" begin="0.9s" fill="freeze" />       |    ███▓▓▓▓▓▓▓▓▓▓▓▓▓▓▓▓▓▓▓▓▓▓▓███    |</tspan>
        <tspan x="45" dy="1.2em" opacity="0"><animate attributeName="opacity" from="0" to="1" dur="0.2s" begin="1.1s" fill="freeze" />       |    ██▓▓▒▒▒▒▒▒▒▒▒▒▒▒▒▒▒▒▒▒▒▒▒▓▓██    |</tspan>
        <tspan x="45" dy="1.2em" opacity="0"><animate attributeName="opacity" from="0" to="1" dur="0.2s" begin="1.3s" fill="freeze" />       |    ██▓▒▒░░░░░░░░░░░░░░░░░░░▒▒▓██    |</tspan>
        <tspan x="45" dy="1.2em" opacity="0"><animate attributeName="opacity" from="0" to="1" dur="0.2s" begin="1.5s" fill="freeze" />       |    ██▓▒░░  SYS.NEURAL_NET ░░▒▓██    |</tspan>
        <tspan x="45" dy="1.2em" opacity="0"><animate attributeName="opacity" from="0" to="1" dur="0.2s" begin="1.7s" fill="freeze" />       |    ██▓▒░░  >> ONLINE      ░░▒▓██    |</tspan>
        <tspan x="45" dy="1.2em" opacity="0"><animate attributeName="opacity" from="0" to="1" dur="0.2s" begin="1.9s" fill="freeze" />       |    ██▓▒░░  >> STABLE      ░░▒▓██    |</tspan>
        <tspan x="45" dy="1.2em" opacity="0"><animate attributeName="opacity" from="0" to="1" dur="0.2s" begin="2.1s" fill="freeze" />       |    ██▓▒░░                 ░░▒▓██    |</tspan>
        <tspan x="45" dy="1.2em" opacity="0"><animate attributeName="opacity" from="0" to="1" dur="0.2s" begin="2.3s" fill="freeze" />       |    ██▓▒▒░░░░░░░░░░░░░░░░░░░▒▒▓██    |</tspan>
        <tspan x="45" dy="1.2em" opacity="0"><animate attributeName="opacity" from="0" to="1" dur="0.2s" begin="2.5s" fill="freeze" />       |    ██▓▓▒▒▒▒▒▒▒▒▒▒▒▒▒▒▒▒▒▒▒▒▒▓▓██    |</tspan>
        <tspan x="45" dy="1.2em" opacity="0"><animate attributeName="opacity" from="0" to="1" dur="0.2s" begin="2.7s" fill="freeze" />       |    ███▓▓▓▓▓▓▓▓▓▓▓▓▓▓▓▓▓▓▓▓▓▓▓███    |</tspan>
        <tspan x="45" dy="1.2em" opacity="0"><animate attributeName="opacity" from="0" to="1" dur="0.2s" begin="2.9s" fill="freeze" />        \   █████████████████████████████   /</tspan>
        <tspan x="45" dy="1.2em" opacity="0"><animate attributeName="opacity" from="0" to="1" dur="0.2s" begin="3.1s" fill="freeze" />         \  =============================  /</tspan>
        <tspan x="45" dy="1.2em" opacity="0"><animate attributeName="opacity" from="0" to="1" dur="0.2s" begin="3.3s" fill="freeze" />          \  [SECURE_CONNECTION_ESTAB]  /</tspan>
        <tspan x="45" dy="1.2em" opacity="0"><animate attributeName="opacity" from="0" to="1" dur="0.2s" begin="3.5s" fill="freeze" />           '---------------------------'</tspan>
      </text>
      <rect x="295" y="405" width="10" height="14" fill="#22D3EE" opacity="0">
        <animate attributeName="opacity" values="0;1;0" dur="1s" begin="3.7s" repeatCount="indefinite" />
      </rect>
    </g>

    <rect x="0" y="0" width="420" height="4" fill="#22D3EE" fill-opacity="0.15">
      <animate attributeName="y" values="-10;540;-10" dur="4s" repeatCount="indefinite" />
    </rect>
  </g>

  <g transform="translate(480, 40)">
    <rect width="660" height="530" fill="#0F172A" stroke="#FFFFFF" stroke-opacity="0.08" stroke-width="1.5" rx="24" />
    
    <g transform="translate(24, 24)">
      <circle cx="0" cy="0" r="6" fill="#EF4444" fill-opacity="0.8" />
      <circle cx="20" cy="0" r="6" fill="#F59E0B" fill-opacity="0.8" />
      <circle cx="40" cy="0" r="6" fill="#10B981" fill-opacity="0.8" />
    </g>
    <path d="M 24 0 L 100 0" stroke="url(#asciiGrad)" stroke-width="2" opacity="0">
      <animate attributeName="opacity" values="0;1;0" dur="4s" repeatCount="indefinite" />
      <animate attributeName="transform" type="translate" values="0,0; 500,0; 0,0" dur="8s" repeatCount="indefinite" />
    </path>

    <g transform="translate(40, 80)">
      <text class="text-main mono" font-size="20" font-weight="600" opacity="0">
        <animate attributeName="opacity" from="0" to="1" dur="0.3s" begin="0.5s" fill="freeze" />
        <tspan x="0" y="0" fill="#22D3EE">&gt;</tspan> Hi 👋
      </text>
      <text class="text-main mono" font-size="28" font-weight="bold" opacity="0">
        <animate attributeName="opacity" from="0" to="1" dur="0.3s" begin="1.0s" fill="freeze" />
        <tspan x="0" y="40" fill="#22D3EE">&gt;</tspan> I'm Aryansinh Thakor
      </text>
      
      <g transform="translate(0, 80)" class="text-muted mono" font-size="18">
        <text x="0" y="0" fill="#22D3EE" opacity="0">
           <animate attributeName="opacity" from="0" to="1" dur="0.1s" begin="1.5s" fill="freeze" />&gt;
        </text>
        <g transform="translate(20, 0)">
          <text clip-path="url(#type-1)">Software Developer</text>
          <text clip-path="url(#type-2)">Full-Stack Developer</text>
          <text clip-path="url(#type-3)">React &amp; Next.js Dev</text>
          <text clip-path="url(#type-4)">Backend API Architect</text>
          <text clip-path="url(#type-5)">AI Enthusiast</text>
          <rect x="0" y="-14" width="10" height="18" fill="#10B981" opacity="0">
            <animate attributeName="opacity" values="0;1;0" dur="1s" begin="1.5s" repeatCount="indefinite" />
          </rect>
        </g>
      </g>
    </g>

    <line x1="40" y1="200" x2="620" y2="200" stroke="#FFFFFF" stroke-opacity="0.06" stroke-width="1" />

    <g transform="translate(40, 240)" class="text-main mono" font-size="14">
      <g opacity="0"><animate attributeName="opacity" from="0" to="1" dur="0.5s" begin="2.0s" fill="freeze" />
        <text x="0" y="0" class="text-muted">Location</text><text x="120" y="0">Surat, Gujarat</text>
      </g>
      <g opacity="0"><animate attributeName="opacity" from="0" to="1" dur="0.5s" begin="2.2s" fill="freeze" />
        <text x="0" y="30" class="text-muted">Education</text><text x="120" y="30">B.Tech IT (P.P. Savani Univ)</text>
      </g>
      <g opacity="0"><animate attributeName="opacity" from="0" to="1" dur="0.5s" begin="2.4s" fill="freeze" />
        <text x="0" y="60" class="text-muted">Focus</text><text x="120" y="60">AI-Powered Applications</text>
      </g>
      <g opacity="0"><animate attributeName="opacity" from="0" to="1" dur="0.5s" begin="2.6s" fill="freeze" />
        <text x="0" y="90" class="text-muted">Socials</text><text x="120" y="90" fill="#22D3EE">LinkedIn &amp; GitHub</text>
      </g>
      <g opacity="0"><animate attributeName="opacity" from="0" to="1" dur="0.5s" begin="2.8s" fill="freeze" />
        <text x="0" y="120" class="text-muted">Email</text><text x="120" y="120" fill="#22D3EE">thakoraryan2804@gmail.com</text>
      </g>
    </g>

    <line x1="40" y1="390" x2="620" y2="390" stroke="#FFFFFF" stroke-opacity="0.06" stroke-width="1" />

    <g transform="translate(40, 420)" opacity="0">
      <animate attributeName="opacity" from="0" to="1" dur="0.8s" begin="3.0s" fill="freeze" />
      <g transform="translate(0,0)"><rect width="105" height="32" rx="16" fill="#FFFFFF" fill-opacity="0.04" stroke="#FFFFFF" stroke-opacity="0.1"/><text x="52.5" y="21" text-anchor="middle" font-size="13" class="text-main">React.js</text></g>
      <g transform="translate(115,0)"><rect width="105" height="32" rx="16" fill="#FFFFFF" fill-opacity="0.04" stroke="#FFFFFF" stroke-opacity="0.1"/><text x="52.5" y="21" text-anchor="middle" font-size="13" class="text-main">Next.js</text></g>
      <g transform="translate(230,0)"><rect width="105" height="32" rx="16" fill="#FFFFFF" fill-opacity="0.04" stroke="#FFFFFF" stroke-opacity="0.1"/><text x="52.5" y="21" text-anchor="middle" font-size="13" class="text-main">Node.js</text></g>
      <g transform="translate(345,0)"><rect width="105" height="32" rx="16" fill="#FFFFFF" fill-opacity="0.04" stroke="#FFFFFF" stroke-opacity="0.1"/><text x="52.5" y="21" text-anchor="middle" font-size="13" class="text-main">Express.js</text></g>
      <g transform="translate(460,0)"><rect width="105" height="32" rx="16" fill="#FFFFFF" fill-opacity="0.04" stroke="#FFFFFF" stroke-opacity="0.1"/><text x="52.5" y="21" text-anchor="middle" font-size="13" class="text-main">Supabase</text></g>
      <g transform="translate(0,42)"><rect width="105" height="32" rx="16" fill="#FFFFFF" fill-opacity="0.04" stroke="#FFFFFF" stroke-opacity="0.1"/><text x="52.5" y="21" text-anchor="middle" font-size="13" class="text-main">PostgreSQL</text></g>
      <g transform="translate(115,42)"><rect width="105" height="32" rx="16" fill="#FFFFFF" fill-opacity="0.04" stroke="#FFFFFF" stroke-opacity="0.1"/><text x="52.5" y="21" text-anchor="middle" font-size="13" class="text-main">MongoDB</text></g>
      <g transform="translate(230,42)"><rect width="105" height="32" rx="16" fill="#FFFFFF" fill-opacity="0.04" stroke="#FFFFFF" stroke-opacity="0.1"/><text x="52.5" y="21" text-anchor="middle" font-size="13" class="text-main">JavaScript</text></g>
      <g transform="translate(345,42)"><rect width="105" height="32" rx="16" fill="#FFFFFF" fill-opacity="0.04" stroke="#FFFFFF" stroke-opacity="0.1"/><text x="52.5" y="21" text-anchor="middle" font-size="13" class="text-main">Git &amp; GitHub</text></g>
      <g transform="translate(460,42)"><rect width="105" height="32" rx="16" fill="#FFFFFF" fill-opacity="0.04" stroke="#FFFFFF" stroke-opacity="0.1"/><text x="52.5" y="21" text-anchor="middle" font-size="13" class="text-main">Firebase</text></g>
    </g>

    <g transform="translate(500, 485)" opacity="0">
      <animate attributeName="opacity" from="0" to="1" dur="0.8s" begin="3.2s" fill="freeze" />
      <g transform="translate(0,0)"><rect width="32" height="32" rx="8" fill="#FFFFFF" fill-opacity="0.05"/><path d="M16 6C10.477 6 6 10.477 6 16c0 4.418 2.865 8.166 6.839 9.489.5.092.682-.217.682-.482 0-.237-.008-.868-.013-1.703-2.782.605-3.369-1.343-3.369-1.343-.454-1.155-1.11-1.462-1.11-1.462-.908-.62.069-.608.069-.608 1.003.07 1.531 1.032 1.531 1.032.892 1.53 2.341 1.088 2.91.832.092-.647.35-1.088.636-1.338-2.22-.253-4.555-1.113-4.555-4.951 0-1.093.39-1.988 1.029-2.688-.103-.253-.446-1.272.098-2.65 0 0 .84-.27 2.75 1.026A9.564 9.564 0 0116 11.714c.85.004 1.705.115 2.504.337 1.909-1.296 2.747-1.027 2.747-1.027.546 1.379.202 2.398.1 2.651.64.7 1.028 1.595 1.028 2.688 0 3.848-2.339 4.695-4.566 4.943.359.309.678.92.678 1.855 0 1.338-.012 2.419-.012 2.747 0 .268.18.58.688.482A10.019 10.019 0 0026 16c0-5.523-4.477-10-10-10z" fill="#F8FAFC"/></g>
      <g transform="translate(44,0)"><rect width="32" height="32" rx="8" fill="#FFFFFF" fill-opacity="0.05"/><path d="M9.5 24v-11h-3.5v11h3.5zm-1.75-12.5c1.2 0 2.1-.9 2.1-2.1s-.9-2.1-2.1-2.1-2.1.9-2.1 2.1.9 2.1 2.1 2.1zm16.25 12.5v-6.3c0-3.4-1.8-5-4.2-5-1.9 0-2.8 1-3.3 1.8v-1.5h-3.5c.1 1 0 11 0 11h3.5v-6.1c0-.3 0-.6.1-.9.3-.7 1-1.5 2.1-1.5 1.5 0 2.1 1.1 2.1 2.8v5.7h3.6z" fill="#F8FAFC"/></g>
      <g transform="translate(88,0)"><rect width="32" height="32" rx="8" fill="#FFFFFF" fill-opacity="0.05"/><path d="M25 10.5c-.7.3-1.5.5-2.3.6.8-.5 1.4-1.3 1.7-2.2-.8.5-1.6.8-2.5 1-.7-.8-1.7-1.3-2.8-1.3-2.1 0-3.8 1.7-3.8 3.8 0 .3 0 .6.1.9-3.2-.2-6-1.7-7.9-4-.3.6-.5 1.2-.5 1.9 0 1.3.7 2.5 1.7 3.2-.6 0-1.2-.2-1.7-.5v.1c0 1.8 1.3 3.3 3 3.7-.3.1-.6.1-.9.1-.2 0-.5 0-.7-.1.5 1.5 1.9 2.6 3.5 2.6-1.3 1-2.9 1.6-4.7 1.6-.3 0-.6 0-.9-.1 1.7 1.1 3.7 1.7 5.8 1.7 7 0 10.8-5.8 10.8-10.8 0-.2 0-.3 0-.5.7-.5 1.3-1.2 1.8-1.9z" fill="#F8FAFC"/></g>
    </g>
  </g>
</svg>
